# xmcd
#
# Track frame offsets:
#	150
#	18851
#	34484
#	55338
#	71098
#	92009
#	118415
#	132888
#	152081
#	168411
#	193989
#	217725
#
# Disc length: 3192 seconds
#
# Revision: 1
# Processed by: cddbd v1.5.2PL0 Copyright (c) Steve Scherf et al.
# Submitted via: audiograbber 1.83.01
#
DISCID=ac0c760c
DTITLE=Kenny Chesney - Welcome To The Fishbowl
DYEAR=2012
DGENRE=Contry
TTITLE0=Come Over
TTITLE1=Feel Like A Rock Star (Duet With Tim McGraw)
TTITLE2=Sing 'Em Good My Friend
TTITLE3=Welcome To The Fishbowl
TTITLE4=I'm A Small Town
TTITLE5=El Cerrito Place
TTITLE6=Makes Me Wonder
TTITLE7=While He Still Knows Who I Am
TTITLE8=Time Flies
TTITLE9=To Get To You (55th And 3rd)
TTITLE10=Always Gonna Be You
TTITLE11=You And Tequila (With Grace Potter)(Live At Red Rock Amphitheatre)
EXTD=
EXTT0=
EXTT1=
EXTT2=
EXTT3=
EXTT4=
EXTT5=
EXTT6=
EXTT7=
EXTT8=
EXTT9=
EXTT10=
EXTT11=
PLAYORDER=
